<?xml version="1.0" encoding="UTF-8"?>
<svg version="1.1" xmlns="http://www.w3.org/2000/svg" width="1024" height="315">
<path d="M0 0 C337.92 0 675.84 0 1024 0 C1024 103.95 1024 207.9 1024 315 C686.08 315 348.16 315 0 315 C0 211.05 0 107.1 0 0 Z " fill="#2C2C2C" transform="translate(0,0)"/>
<path d="M0 0 C1.36012515 -0.00543735 2.7202444 -0.01256894 4.08035278 -0.02124023 C7.73338229 -0.03928555 11.38595376 -0.03248517 15.03899002 -0.01972389 C18.88725136 -0.0094975 22.73547712 -0.01901601 26.58374023 -0.02526855 C33.04255106 -0.03251722 39.5011781 -0.02303084 45.95996094 -0.00390625 C53.39516272 0.01785724 60.82992553 0.01080388 68.26511669 -0.01121187 C74.68340111 -0.02944571 81.10155446 -0.03188546 87.51985645 -0.0214572 C91.33808891 -0.01526584 95.15611599 -0.01426484 98.97433472 -0.02760315 C102.56646843 -0.03927834 106.15804396 -0.03092718 109.75011826 -0.00802612 C111.67382825 -0.00033574 113.59758626 -0.01199454 115.52127075 -0.02453613 C129.23950853 0.1069197 140.83888652 3.83393023 151.00390625 13.08007812 C157.97258153 20.296162 161.98525828 29.42005947 162.02607727 39.39137268 C162.03323257 40.59261276 162.04038788 41.79385284 162.04776001 43.03149414 C162.05044891 44.34633789 162.05313782 45.66118164 162.0559082 47.01586914 C162.06217621 48.41731432 162.06882331 49.81875785 162.07582092 51.22019958 C162.09683044 55.82061615 162.10722306 60.42103291 162.1171875 65.02148438 C162.12123676 66.6086472 162.12535373 68.19580986 162.12953758 69.78297234 C162.14858549 77.24366547 162.16281518 84.70434876 162.17114955 92.16506153 C162.1809091 100.75839492 162.2071966 109.35146984 162.24765044 117.94471222 C162.27788919 124.59799044 162.29262591 131.25119492 162.29593056 137.90454048 C162.29827296 141.87267566 162.3071265 145.84053461 162.33239174 149.80859566 C162.35581272 153.54745045 162.35985009 157.28584992 162.34963036 161.02475929 C162.34890532 163.03486683 162.36789916 165.04495197 162.38769531 167.05496216 C162.31348188 180.10441823 158.44234401 189.67906967 149.87890625 199.51757812 C141.84657279 207.43277339 130.30801586 211.62454221 119.15060425 211.65802002 C118.00688858 211.66373016 116.86317291 211.66944031 115.68479919 211.67532349 C114.43900589 211.67644135 113.19321259 211.6775592 111.90966797 211.67871094 C110.59036789 211.68367584 109.27106781 211.68864075 107.91178894 211.6937561 C104.29782582 211.70684562 100.68388124 211.71331871 97.06989813 211.71776676 C94.80789919 211.72070403 92.54590525 211.72481013 90.28390884 211.72927094 C83.19483556 211.74293892 76.10577377 211.75260809 69.01668823 211.75647283 C60.85582222 211.7609472 52.69512422 211.7784691 44.53430927 211.80747342 C38.21221704 211.82915613 31.89017185 211.83918066 25.56804287 211.84051394 C21.79894675 211.84155758 18.0300087 211.84737027 14.260952 211.86533356 C10.71009194 211.88192794 7.15950684 211.88391533 3.6086216 211.87519455 C1.70112212 211.87406866 -0.20636871 211.88769927 -2.11381531 211.90194702 C-15.66815231 211.83690831 -27.3200515 208.38612564 -37.4921875 199.18164062 C-45.33293528 191.17166807 -49.22281903 182.70326597 -49.26826477 171.44087219 C-49.27542007 170.21998398 -49.28257538 168.99909576 -49.28994751 167.74121094 C-49.29278739 166.39624049 -49.29549917 165.05126977 -49.2980957 163.70629883 C-49.30436542 162.28337948 -49.31101267 160.86046174 -49.31800842 159.43754578 C-49.3389915 154.77282845 -49.34940571 150.10811101 -49.359375 145.44335938 C-49.36342477 143.83357413 -49.36754175 142.22378904 -49.37172508 140.61400414 C-49.39076445 133.04919893 -49.40499787 125.4844034 -49.41333705 117.91957885 C-49.42310381 109.20512621 -49.4494138 100.49092795 -49.48983794 91.7765649 C-49.52005779 85.02901543 -49.53481149 78.28153865 -49.53811806 71.53392285 C-49.54046191 67.5093859 -49.54933515 63.4851211 -49.57457924 59.46065712 C-49.59796809 55.6709058 -49.60205027 51.88160375 -49.59181786 48.09179878 C-49.59132499 46.70756785 -49.59757125 45.32331397 -49.6113739 43.93915176 C-49.73779808 30.49980856 -46.54356313 21.23398936 -37.12109375 11.51757812 C-26.43524524 1.96424689 -13.92251335 -0.09076881 0 0 Z " fill="#FBFBF9" transform="translate(158.12109375,49.482421875)"/>
<path d="M0 0 C1.31629395 0.01087646 2.63258789 0.02175293 3.98876953 0.03295898 C23.95679319 0.36012148 42.18763569 4.43345998 57.125 18.375 C57.83011719 19.00148438 58.53523437 19.62796875 59.26171875 20.2734375 C67.69809332 28.1473871 73.73919298 38.00733125 76.125 49.375 C75.795 50.365 75.465 51.355 75.125 52.375 C70.89637996 52.87969616 66.66702341 53.37793584 62.4375 53.875 C61.23931641 54.01808594 60.04113281 54.16117188 58.80664062 54.30859375 C57.64970703 54.44394531 56.49277344 54.57929687 55.30078125 54.71875 C54.23770752 54.84443359 53.17463379 54.97011719 52.0793457 55.09960938 C46.82828527 55.58908927 46.82828527 55.58908927 44.125 55.375 C42.38671875 53.21484375 42.38671875 53.21484375 40.8125 50.3125 C34.4964366 39.70859184 25.61339213 34.30594724 14 30.5625 C0.12736116 27.1286785 -14.87592829 29.03982649 -27.43359375 35.8125 C-41.47859501 44.80130081 -48.30111818 57.91639441 -52.4921875 73.69921875 C-55.20076654 92.63163345 -52.00376424 112.3373596 -40.67871094 128.03295898 C-32.66415936 138.02295026 -20.4930868 144.466061 -7.875 146.375 C6.16188437 147.33170385 20.05698669 145.92596901 31.125 136.375 C38.76310763 129.38960338 42.63216375 121.346345 45.125 111.375 C30.605 111.375 16.085 111.375 1.125 111.375 C1.125 102.465 1.125 93.555 1.125 84.375 C25.875 84.375 50.625 84.375 76.125 84.375 C76.125 113.085 76.125 141.795 76.125 171.375 C68.205 171.375 60.285 171.375 52.125 171.375 C51.795 164.445 51.465 157.515 51.125 150.375 C50.135 151.550625 49.145 152.72625 48.125 153.9375 C36.70912229 166.8572658 22.46384346 174.28709687 5.12597656 175.60253906 C-18.18786367 176.71873918 -39.5475525 173.0019816 -57.70703125 157.3671875 C-58.42246094 156.70976562 -59.13789063 156.05234375 -59.875 155.375 C-60.58011719 154.73820313 -61.28523438 154.10140625 -62.01171875 153.4453125 C-74.17646337 141.90618332 -80.9624193 127.4955849 -84.875 111.375 C-85.101875 110.50746094 -85.32875 109.63992187 -85.5625 108.74609375 C-91.02337565 84.51345804 -85.34778437 57.42126141 -72.875 36.375 C-70.09831676 32.48264044 -67.09281727 28.90784833 -63.875 25.375 C-63.26140625 24.66859375 -62.6478125 23.9621875 -62.015625 23.234375 C-46.104881 5.96373835 -22.79056273 -0.2569481 0 0 Z " fill="#FAFAF9" transform="translate(444.875,67.625)"/>
<path d="M0 0 C1.8088684 0.00051995 3.61773737 -0.00000296 5.42660522 -0.00151062 C9.1866721 -0.00142162 12.9465213 0.00886757 16.70654297 0.02709961 C21.52390806 0.04994869 26.34096067 0.05029366 31.15836525 0.04358196 C34.87981954 0.04024398 38.60120252 0.04686614 42.32264328 0.0567112 C44.10004682 0.06055418 45.87745828 0.06171516 47.65486526 0.06012535 C50.12895183 0.05975474 52.60263432 0.07236805 55.07666016 0.08862305 C55.80704498 0.08614563 56.53742981 0.08366821 57.28994751 0.08111572 C60.94661606 0.11948326 63.77595086 0.25134339 66.8359375 2.36328125 C69.60900257 6.54909191 69.24031112 10.94592597 69.2734375 15.80078125 C69.30630859 16.64705078 69.33917969 17.49332031 69.37304688 18.36523438 C69.38013672 19.18830078 69.38722656 20.01136719 69.39453125 20.859375 C69.41471313 21.97590454 69.41471313 21.97590454 69.43530273 23.11499023 C68.49780126 26.63167091 66.62736472 28.08794481 63.8359375 30.36328125 C61.07705197 30.8423312 58.93909344 31.01747683 56.19091797 30.95922852 C55.43732498 30.96328705 54.68373199 30.96734558 53.90730286 30.9715271 C52.27587748 30.97703366 50.64438144 30.97106568 49.01302719 30.95486641 C46.42152242 30.92937666 43.83160335 30.93426842 41.24002075 30.94676208 C35.73015163 30.96749769 30.22077409 30.94786909 24.7109375 30.92578125 C18.34287429 30.90460406 11.97532626 30.90029089 5.6072731 30.92628288 C3.07072241 30.92961512 0.53518089 30.90851399 -2.00125122 30.88587952 C-14.30006372 30.86280476 -24.88567406 32.53253436 -34.1640625 41.36328125 C-42.49478609 50.48921027 -43.67150154 59.15262502 -43.6015625 71.17578125 C-43.62154297 72.38298828 -43.64152344 73.59019531 -43.66210938 74.83398438 C-43.65597075 86.18431048 -41.10936375 95.97555023 -33.1640625 104.36328125 C-24.22388912 112.83188504 -13.6880952 114.9590435 -1.71484375 114.97265625 C-0.57621384 114.9891925 0.56241608 115.00572876 1.73554993 115.02276611 C5.33156917 115.0709077 8.92716659 115.09254234 12.5234375 115.11328125 C14.97853646 115.14146912 17.43361607 115.17140044 19.88867188 115.203125 C25.87128154 115.27990283 31.85259733 115.32074062 37.8359375 115.36328125 C37.8359375 107.11328125 37.8359375 98.86328125 37.8359375 90.36328125 C35.51175781 90.42128906 33.18757813 90.47929687 30.79296875 90.5390625 C28.53250538 90.57809829 26.27208009 90.6084338 24.01147461 90.63793945 C22.44489636 90.66302672 20.87843451 90.6971054 19.31225586 90.74047852 C17.05553441 90.80139351 14.80036456 90.82954624 12.54296875 90.8515625 C11.84694046 90.87736893 11.15091217 90.90317535 10.43379211 90.92976379 C6.61280181 90.93194917 4.95324044 90.45350755 1.89135742 88.09838867 C-0.1417175 85.39301531 -0.7913079 84.40192071 -0.7578125 81.11328125 C-0.75523437 80.33984375 -0.75265625 79.56640625 -0.75 78.76953125 C-0.72164063 77.97546875 -0.69328125 77.18140625 -0.6640625 76.36328125 C-0.66664063 75.56921875 -0.66921875 74.77515625 -0.671875 73.95703125 C-0.59440784 69.30900149 -0.16332357 66.12705984 2.8359375 62.36328125 C5.47224694 61.04512653 7.46318123 61.22168914 10.41552734 61.20214844 C11.58368988 61.19254089 12.75185242 61.18293335 13.95541382 61.17303467 C15.8569371 61.16665985 15.8569371 61.16665985 17.796875 61.16015625 C19.74275009 61.15160614 19.74275009 61.15160614 21.72793579 61.1428833 C24.47683098 61.1323745 27.22569693 61.12653113 29.97460938 61.12304688 C33.49427645 61.11756374 37.01355635 61.09353967 40.53310204 61.06507492 C43.89185246 61.0419523 47.25054907 61.0399991 50.609375 61.03515625 C51.87300873 61.02280945 53.13664246 61.01046265 54.43856812 60.9977417 C55.61303497 61.0007428 56.78750183 61.0037439 57.99755859 61.00683594 C59.5473793 61.00136749 59.5473793 61.00136749 61.12850952 60.99578857 C64.25274462 61.41985655 65.59969669 62.16969331 67.8359375 64.36328125 C68.97531888 67.78142538 68.9768717 70.42901533 68.99707031 74.03442383 C69.00203522 74.70797409 69.00700012 75.38152435 69.01211548 76.07548523 C69.02671539 78.30293807 69.03353584 80.53031967 69.0390625 82.7578125 C69.04481624 84.30856833 69.05057394 85.85932415 69.05633545 87.41007996 C69.0668396 90.66246878 69.07268593 93.91483293 69.07617188 97.16723633 C69.08165199 101.32674434 69.10567192 105.48592425 69.13414383 109.64532948 C69.15280539 112.84959351 69.1579777 116.0537791 69.15950775 119.25809288 C69.16252744 120.79104084 69.17053288 122.32398765 69.18369293 123.8568821 C69.20082588 126.0061572 69.19885594 128.15463862 69.19238281 130.30395508 C69.19785126 132.13571037 69.19785126 132.13571037 69.20343018 134.00447083 C68.78556904 137.82363906 67.96712791 140.1683303 65.8359375 143.36328125 C61.90632819 145.75506894 58.05037149 145.62184087 53.52978516 145.63793945 C52.4529245 145.64560585 52.4529245 145.64560585 51.35430908 145.65342712 C48.98612051 145.66729687 46.61822434 145.66636647 44.25 145.6640625 C42.58914077 145.66795464 40.92828252 145.67229038 39.26742554 145.67704773 C35.78225487 145.68450712 32.29718545 145.68422347 28.81201172 145.67895508 C24.38662846 145.67320127 19.96166933 145.6899928 15.53635597 145.71329975 C12.10095876 145.7281827 8.66565981 145.72888855 5.23023605 145.72579002 C3.60146631 145.72629731 1.97269018 145.73142122 0.34395218 145.74160194 C-21.94693285 145.8636999 -40.69325873 141.24261248 -57.4140625 125.55078125 C-71.53443406 110.79383557 -75.69964042 93.15440677 -75.55517578 73.42016602 C-75.53907227 70.80236884 -75.55510214 68.1861102 -75.57421875 65.56835938 C-75.58571137 57.09083735 -75.53505966 49.29209431 -72.1640625 41.36328125 C-71.6896875 40.16960937 -71.2153125 38.9759375 -70.7265625 37.74609375 C-62.8828101 21.39187 -50.3369543 9.71117704 -33.1640625 3.36328125 C-22.08853575 0.122766 -11.43489403 -0.06563817 0 0 Z " fill="#2C2C2C" transform="translate(211.1640625,84.63671875)"/>
<path d="M0 0 C13.03118146 10.01363649 21.12434423 22.89632772 24 39 C24 46.92 24 54.84 24 63 C-5.04 63 -34.08 63 -64 63 C-58.44285911 80.71873548 -58.44285911 80.71873548 -45 91 C-37.63038704 94.43915271 -29.64260227 93.83540039 -22.125 91.1875 C-20.39424449 90.51328032 -18.68378419 89.78419233 -17 89 C-16.17242188 88.62488281 -15.34484375 88.24976563 -14.4921875 87.86328125 C-11.77511782 85.83186709 -11.46286935 84.84100014 -10.14453125 81.84375 C-8.89697266 79.7109375 -8.89697266 79.7109375 -7 78 C-1.88433009 76.96517751 3.13587549 77.24698688 8.3125 77.5 C9.73492649 77.54015501 11.15746125 77.57665236 12.58007812 77.609375 C16.05564395 77.69727565 19.52713582 77.83515387 23 78 C19.14191141 92.00896522 12.31882818 102.32478947 -0.296875 110.0078125 C-16.14320147 118.42397256 -33.61578994 120.65212657 -51.0625 116.3125 C-67.30946757 111.29735889 -79.07463095 102.35591801 -87.4296875 87.44921875 C-95.99846767 70.33700983 -97.02788811 47.38957479 -91.25390625 29.22265625 C-87.49659969 19.56602724 -82.30797872 12.32089035 -75 5 C-74.43539062 4.42378906 -73.87078125 3.84757813 -73.2890625 3.25390625 C-54.17916554 -14.69075309 -20.96009248 -14.56823765 0 0 Z " fill="#FAFAF8" transform="translate(888,125)"/>
<path d="M0 0 C10.23 0 20.46 0 31 0 C31 46.86 31 93.72 31 142 C54.76 142 78.52 142 103 142 C103 151.57 103 161.14 103 171 C69.01 171 35.02 171 0 171 C0 114.57 0 58.14 0 0 Z " fill="#FBFBF9" transform="translate(543,69)"/>
<path d="M0 0 C9.9 0 19.8 0 30 0 C30 9.9 30 19.8 30 30 C39.57 30 49.14 30 59 30 C59 38.58 59 47.16 59 56 C49.43 56 39.86 56 30 56 C30.067727 63.5480573 30.1382725 71.09518818 30.2355423 78.64277649 C30.2800514 82.15815013 30.31951689 85.67340876 30.34643555 89.18896484 C30.37761966 93.23043489 30.43240245 97.27129537 30.48828125 101.3125 C30.49467117 102.5617627 30.5010611 103.81102539 30.50764465 105.09814453 C30.61914848 111.748776 31.07666755 116.98328978 34 123 C37.40335492 126.1996064 41.37852616 126.95067668 45.9375 127.3125 C50.30070129 126.97686913 54.6506742 126.48325842 59 126 C59 134.58 59 143.16 59 152 C43.25411922 155.6336648 28.27062678 157.8085858 13.47265625 149.59765625 C6.18503334 144.6381924 1.67013704 136.63501451 0 128 C-0.08803369 125.64684987 -0.11764216 123.29131611 -0.11352539 120.93652344 C-0.11367142 120.23368225 -0.11381744 119.53084106 -0.1139679 118.80670166 C-0.11327299 116.49089437 -0.10550038 114.17516819 -0.09765625 111.859375 C-0.09579057 110.25083459 -0.09436737 108.64229362 -0.09336853 107.03375244 C-0.08955516 102.80544458 -0.07973495 98.57717121 -0.06866455 94.34887695 C-0.05842506 90.03206855 -0.05386547 85.71525456 -0.04882812 81.3984375 C-0.03811162 72.9322741 -0.02052437 64.46614532 0 56 C-6.93 56 -13.86 56 -21 56 C-21 47.42 -21 38.84 -21 30 C-14.07 30 -7.14 30 0 30 C0 20.1 0 10.2 0 0 Z " fill="#FAFAF9" transform="translate(728,87)"/>
<path d="M0 0 C10.23 0 20.46 0 31 0 C31 40.26 31 80.52 31 122 C20.77 122 10.54 122 0 122 C0 81.74 0 41.48 0 0 Z " fill="#FAFAF8" transform="translate(661,117)"/>
<path d="M0 0 C7.09704785 4.49437377 10.99836324 11.40197065 13.18359375 19.3828125 C13.18359375 20.7028125 13.18359375 22.0228125 13.18359375 23.3828125 C-5.29640625 23.3828125 -23.77640625 23.3828125 -42.81640625 23.3828125 C-41.65594468 14.09911994 -39.2802244 7.75645059 -31.81640625 1.8828125 C-22.81183563 -4.57046311 -9.84379308 -4.62286506 0 0 Z " fill="#292929" transform="translate(868.81640625,142.6171875)"/>
<path d="M0 0 C4.69029157 2.80713511 8.2310989 6.10672905 10.70703125 11.05859375 C11.39615106 18.50334714 11.34099342 24.04696715 6.70703125 30.05859375 C1.67450326 34.83304338 -3.07983839 36.60169179 -9.94921875 36.44140625 C-15.24406493 35.57658137 -19.01601441 32.36915215 -22.66796875 28.62109375 C-25.96162798 23.4272465 -26.70491265 19.23696804 -25.828125 13.23046875 C-24.34142327 7.19684712 -20.06069159 3.60902565 -15.29296875 0.05859375 C-10.28651725 -1.61022342 -4.9633286 -2.03775501 0 0 Z " fill="#F9F9F8" transform="translate(683.29296875,65.94140625)"/>
<path d="M0 0 C6.6 0 13.2 0 20 0 C20 24.09 20 48.18 20 73 C19.67 73 19.34 73 19 73 C17.79885409 65.4855647 17.872428 58.03080069 17.90234375 50.4375 C17.90421205 49.03645885 17.905634 47.63541704 17.90663147 46.234375 C17.91042424 42.57165682 17.92022634 38.90897917 17.93133545 35.24627686 C17.94161974 31.49882556 17.94614404 27.75136763 17.95117188 24.00390625 C17.96185196 16.66925034 17.97942199 9.33463604 18 2 C11.73 2 5.46 2 -1 2 C-0.67 1.34 -0.34 0.68 0 0 Z " fill="#181818" transform="translate(708,143)"/>
<path d="M0 0 C14.19 0 28.38 0 43 0 C41.45125229 6.96936471 40.60183684 10.35712229 37 16 C36.505 15.01 36.505 15.01 36 14 C35.34 13.67 34.68 13.34 34 13 C35.32 12.67 36.64 12.34 38 12 C38.12375 10.906875 38.2475 9.81375 38.375 8.6875 C39 5 39 5 41 2 C20.705 1.505 20.705 1.505 0 1 C0 0.67 0 0.34 0 0 Z " fill="#141413" transform="translate(447,180)"/>
<path d="M0 0 C-0.33 1.65 -0.66 3.3 -1 5 C-10.41002278 6.14806378 -10.41002278 6.14806378 -15 6 C-15 5.34 -15 4.68 -15 4 C-13.25705322 3.13153169 -11.50531337 2.28069373 -9.75 1.4375 C-8.77546875 0.96183594 -7.8009375 0.48617187 -6.796875 -0.00390625 C-3.90143703 -1.03510273 -2.80033839 -1.11346788 0 0 Z " fill="#272726" transform="translate(182,89)"/>
<path d="M0 0 C2.375 0.25 2.375 0.25 5 1 C6.7941758 3.56310828 7 4.83119306 7 8 C9.43750025 10.68767578 9.43750025 10.68767578 12 13 C11.67 13.66 11.34 14.32 11 15 C10.50371094 14.48050781 10.00742187 13.96101562 9.49609375 13.42578125 C5.25458473 9.07159457 1.05771167 5.37180778 -4 2 C-3.34 1.67 -2.68 1.34 -2 1 C-1.34 1.33 -0.68 1.66 0 2 C0 1.34 0 0.68 0 0 Z " fill="#222222" transform="translate(888,121)"/>
<path d="M0 0 C0.66 0 1.32 0 2 0 C2.66 0.99 3.32 1.98 4 3 C4.66 3 5.32 3 6 3 C6 3.99 6 4.98 6 6 C17.53737528 6.16982546 17.53737528 6.16982546 29 5 C23.5448198 8.6367868 16.50953062 10.01789958 10 9 C5.70170724 7.59508099 2.7052725 6.29299959 0.5 2.25 C0.335 1.5075 0.17 0.765 0 0 Z " fill="#272725" transform="translate(760,206)"/>
<path d="M0 0 C0.83402344 0.0721875 1.66804688 0.144375 2.52734375 0.21875 C9.04508807 0.75629592 15.46088617 1.11083244 22 1 C22 1.99 22 2.98 22 4 C19.4374282 4.02710123 16.87514635 4.04688771 14.3125 4.0625 C13.2306543 4.07506836 13.2306543 4.07506836 12.12695312 4.08789062 C8.28444618 4.10543632 4.73360474 3.93524221 1 3 C0.67 2.01 0.34 1.02 0 0 Z " fill="#323231" transform="translate(431,211)"/>
<path d="M0 0 C8.54558539 3.1074856 12.96393961 6.59062379 18 14 C18.99404437 15.33777934 19.99242978 16.67237806 21 18 C20.67 18.66 20.34 19.32 20 20 C18.96552734 18.82244141 18.96552734 18.82244141 17.91015625 17.62109375 C12.8180161 11.90278874 7.83076349 6.70480524 1.58203125 2.20703125 C1.05996094 1.80871094 0.53789062 1.41039063 0 1 C0 0.67 0 0.34 0 0 Z " fill="#1D1D1D" transform="translate(492,78)"/>
<path d="M0 0 C0.66 0.33 1.32 0.66 2 1 C2 1.33 2 1.66 2 2 C2.66 2 3.32 2 4 2 C4.125 4.875 4.125 4.875 4 8 C3.34 8.66 2.68 9.32 2 10 C1.01 9.34 0.02 8.68 -1 8 C-1 7.34 -1 6.68 -1 6 C-2.32 6.33 -3.64 6.66 -5 7 C-3.70700306 4.11562221 -2.34058637 2.12780579 0 0 Z M-5 8 C-3.02 8.99 -3.02 8.99 -1 10 C-2.32 10 -3.64 10 -5 10 C-5 9.34 -5 8.68 -5 8 Z " fill="#1E1E1D" transform="translate(156,101)"/>
<path d="M0 0 C1.03725961 3.11177882 0.93467353 4.08734761 0.375 7.1875 C-0.21429743 12.09300296 0.35462756 15.77979045 3 20 C5.16612231 22.25257508 7.47006623 24.17013009 10 26 C9.34 26.33 8.68 26.66 8 27 C3.87009103 25.5489509 2.20967793 23.06892162 0.1875 19.375 C-2.61671509 13.33447379 -3.06611881 8.26498886 -1 1.9375 C-0.67 1.298125 -0.34 0.65875 0 0 Z " fill="#181817" transform="translate(658,74)"/>
<path d="M0 0 C2.38564077 0.57584432 4.66682784 1.22227595 7 2 C5.54955729 6.10958767 3.48889248 9.43258745 1 13 C0.67 12.34 0.34 11.68 0 11 C0.9375 8.875 0.9375 8.875 2 7 C1.34 7 0.68 7 0 7 C0 4.69 0 2.38 0 0 Z " fill="#222221" transform="translate(369,96)"/>
<path d="M0 0 C0.66 0.66 1.32 1.32 2 2 C0.37660195 3.70884005 -1.29319053 5.37446717 -3 7 C-3.66 7 -4.32 7 -5 7 C-5.33 7.66 -5.66 8.32 -6 9 C-6.99 8.67 -7.98 8.34 -9 8 C-7.75616297 4.26848892 -6.15652193 3.25465852 -3 1 C-2.01 0.67 -1.02 0.34 0 0 Z " fill="#2A2A2A" transform="translate(490,226)"/>
<path d="M0 0 C0.33 0.99 0.66 1.98 1 3 C2.65 2.67 4.3 2.34 6 2 C4.75023244 5.65316671 4.32901247 6.78065836 1 9 C0.67 8.34 0.34 7.68 0 7 C-0.99 6.67 -1.98 6.34 -3 6 C-2.67 4.68 -2.34 3.36 -2 2 C-1.34 2 -0.68 2 0 2 C0 1.34 0 0.68 0 0 Z " fill="#232323" transform="translate(875,201)"/>
<path d="M0 0 C0.33 0.99 0.66 1.98 1 3 C-0.32 3.99 -1.64 4.98 -3 6 C-4.9375 5.1875 -4.9375 5.1875 -7 4 C-7.33 3.01 -7.66 2.02 -8 1 C-5.29120665 -0.35439668 -2.99066732 -0.06501451 0 0 Z " fill="#232321" transform="translate(874,209)"/>
<path d="M0 0 C1.65 0 3.3 0 5 0 C5.66 4.29 6.32 8.58 7 13 C0 3.66666667 0 3.66666667 0 0 Z " fill="#1E1E1D" transform="translate(312,65)"/>
<path d="M0 0 C7.92 0 15.84 0 24 0 C24 0.33 24 0.66 24 1 C22.87980469 1.06058594 21.75960937 1.12117187 20.60546875 1.18359375 C19.13280016 1.26801424 17.66014456 1.35266149 16.1875 1.4375 C15.44951172 1.47681641 14.71152344 1.51613281 13.95117188 1.55664062 C10.76928658 1.74381035 8.03837622 1.98720793 5 3 C2.3125 2.5625 2.3125 2.5625 0 2 C0 1.34 0 0.68 0 0 Z " fill="#333333" transform="translate(496,241)"/>
<path d="M0 0 C2.64 0.99 5.28 1.98 8 3 C8 3.66 8 4.32 8 5 C7.01 5 6.02 5 5 5 C4.67 5.99 4.34 6.98 4 8 C3.01 7.67 2.02 7.34 1 7 C-0.1875 3.9375 -0.1875 3.9375 -1 1 C-0.67 0.67 -0.34 0.34 0 0 Z " fill="#F4F4F2" transform="translate(418,208)"/>
<path d="M0 0 C0.66 0.33 1.32 0.66 2 1 C1.38125 1.7425 0.7625 2.485 0.125 3.25 C-2.00623933 5.80438808 -2.00623933 5.80438808 -3.0625 8.25 C-4 10 -4 10 -7 11 C-7.33 11.66 -7.66 12.32 -8 13 C-8.66 12.67 -9.32 12.34 -10 12 C-3.84965831 3.55353075 -3.84965831 3.55353075 0 0 Z " fill="#181818" transform="translate(410,108)"/>
<path d="M0 0 C0.66 0.33 1.32 0.66 2 1 C1.01 2.485 1.01 2.485 0 4 C-0.33 4.66 -0.66 5.32 -1 6 C-4.13349732 7.04449911 -4.98968256 6.93423645 -8 6 C-3.375 0 -3.375 0 0 0 Z " fill="#F3F3F1" transform="translate(392,85)"/>
<path d="M0 0 C0.66 0.66 1.32 1.32 2 2 C-2.43076923 4.09230769 -2.43076923 4.09230769 -5.3125 3.625 C-5.869375 3.41875 -6.42625 3.2125 -7 3 C-7 2.01 -7 1.02 -7 0 C-3.85179059 -1.04940314 -3.00659136 -1.066855 0 0 Z " fill="#F0F0EF" transform="translate(675,66)"/>
<path d="M0 0 C1.98 0.66 3.96 1.32 6 2 C2.38671875 6.6875 2.38671875 6.6875 1 8 C0.01 8 -0.98 8 -2 8 C-2 7.01 -2 6.02 -2 5 C-1.01 4.67 -0.02 4.34 1 4 C0.01 3.67 -0.98 3.34 -2 3 C-1.34 2.01 -0.68 1.02 0 0 Z " fill="#1D1D1D" transform="translate(117,57)"/>
<path d="M0 0 C0 0.99 0 1.98 0 3 C-1.32 3 -2.64 3 -4 3 C-4 3.66 -4 4.32 -4 5 C-5.65 5.33 -7.3 5.66 -9 6 C-9 3 -9 3 -7.3125 1.3125 C-4.6402007 -0.20421041 -3.02346601 -0.2519555 0 0 Z " fill="#333332" transform="translate(499,122)"/>
<path d="M0 0 C1.32 0 2.64 0 4 0 C4.268125 0.7425 4.53625 1.485 4.8125 2.25 C5.94229421 4.86636554 7.20893202 6.80187111 9 9 C8.67 9.66 8.34 10.32 8 11 C6.84852339 9.73427767 5.70400686 8.46222094 4.5625 7.1875 C3.92441406 6.47980469 3.28632813 5.77210938 2.62890625 5.04296875 C1 3 1 3 0 0 Z " fill="#1E1E1D" transform="translate(146,199)"/>
<path d="M0 0 C2.64 0.33 5.28 0.66 8 1 C8 1.99 8 2.98 8 4 C7.34 4 6.68 4 6 4 C6 4.66 6 5.32 6 6 C4.68 5.67 3.36 5.34 2 5 C2.33 4.67 2.66 4.34 3 4 C1.68 3.34 0.36 2.68 -1 2 C-0.67 1.34 -0.34 0.68 0 0 Z " fill="#333333" transform="translate(512,120)"/>
<path d="M0 0 C1.8125 0.1875 1.8125 0.1875 4 1 C5.75 3.5625 5.75 3.5625 7 6 C6.38125 5.814375 5.7625 5.62875 5.125 5.4375 C2.95839822 4.76313824 2.95839822 4.76313824 1 6 C1 5.34 1 4.68 1 4 C0.34 4 -0.32 4 -1 4 C-0.67 2.68 -0.34 1.36 0 0 Z " fill="#EFEFED" transform="translate(308,65)"/>
<path d="M0 0 C1.32 0.33 2.64 0.66 4 1 C1.36 2.98 -1.28 4.96 -4 7 C-4 5.35 -4 3.7 -4 2 C-3.34 1.67 -2.68 1.34 -2 1 C-1.34 1.33 -0.68 1.66 0 2 C0 1.34 0 0.68 0 0 Z " fill="#E7E7E7" transform="translate(305,247)"/>
<path d="M0 0 C1.9375 0.375 1.9375 0.375 4 1 C5.24546405 3.49092811 4.7767578 4.41080733 4 7 C2.35 6.67 0.7 6.34 -1 6 C-0.67 4.02 -0.34 2.04 0 0 Z " fill="#F3F3F1" transform="translate(314,227)"/>
<path d="M0 0 C0.33 1.32 0.66 2.64 1 4 C-0.32 4.99 -1.64 5.98 -3 7 C-3.66 6.67 -4.32 6.34 -5 6 C-4.625 3.5625 -4.625 3.5625 -4 1 C-2 0 -2 0 0 0 Z " fill="#EFEFED" transform="translate(871,215)"/>
<path d="M0 0 C-2.88628401 1.57554035 -5.53342384 2.46276373 -8.75 3.125 C-9.54921875 3.29257813 -10.3484375 3.46015625 -11.171875 3.6328125 C-11.77515625 3.75398438 -12.3784375 3.87515625 -13 4 C-13 3.34 -13 2.68 -13 2 C-13.99 1.67 -14.98 1.34 -16 1 C-14.9275 1.020625 -13.855 1.04125 -12.75 1.0625 C-8.36348084 0.98939135 -4.41071576 -0.12251988 0 0 Z " fill="#181817" transform="translate(843,115)"/>
<path d="M0 0 C1.65 1.32 3.3 2.64 5 4 C4.67 4.66 4.34 5.32 4 6 C1.69 6 -0.62 6 -3 6 C-2.67 4.68 -2.34 3.36 -2 2 C-1.34 2 -0.68 2 0 2 C0 1.34 0 0.68 0 0 Z " fill="#F1F1EF" transform="translate(302,57)"/>
<path d="M0 0 C5.94 0 11.88 0 18 0 C16.68 0.99 15.36 1.98 14 3 C13.34 2.67 12.68 2.34 12 2 C9.9625237 1.77141886 7.91959697 1.58975722 5.875 1.4375 C4.23144531 1.31181641 4.23144531 1.31181641 2.5546875 1.18359375 C1.71164062 1.12300781 0.86859375 1.06242188 0 1 C0 0.67 0 0.34 0 0 Z " fill="#3D3D3D" transform="translate(436,243)"/>
<path d="M0 0 C0.66 0.33 1.32 0.66 2 1 C2 1.99 2 2.98 2 4 C0.68 4 -0.64 4 -2 4 C-2 4.66 -2 5.32 -2 6 C-3.32 6 -4.64 6 -6 6 C-5 3 -5 3 -2.5625 1.25 C-1.716875 0.8375 -0.87125 0.425 0 0 Z " fill="#20201E" transform="translate(891,232)"/>
<path d="M0 0 C2.2477975 2.05233685 3.0022242 3.00667261 4 6 C2.35 6 0.7 6 -1 6 C-1.66 4.68 -2.32 3.36 -3 2 C-2.01 1.34 -1.02 0.68 0 0 Z " fill="#F3F3F1" transform="translate(141,192)"/>
<path d="M0 0 C5.75 0.75 5.75 0.75 8 3 C5.64561267 4.42944945 4.51967567 5.08661261 1.75 4.625 C1.1725 4.41875 0.595 4.2125 0 4 C0 2.66666667 0 1.33333333 0 0 Z " fill="#232323" transform="translate(746,239)"/>
<path d="M0 0 C2.31 0.33 4.62 0.66 7 1 C6.01 2.485 6.01 2.485 5 4 C5.33 4.66 5.66 5.32 6 6 C3.03 5.505 3.03 5.505 0 5 C0 3.35 0 1.7 0 0 Z " fill="#333333" transform="translate(479,233)"/>
<path d="M0 0 C1.98 0.495 1.98 0.495 4 1 C4 4 4 4 3 7 C1.68 6.01 0.36 5.02 -1 4 C-0.67 2.68 -0.34 1.36 0 0 Z " fill="#F3F3F1" transform="translate(179,186)"/>
<path d="M0 0 C0.66 0.66 1.32 1.32 2 2 C0.35 5.3 -1.3 8.6 -3 12 C-3.33 11.34 -3.66 10.68 -4 10 C-4.66 9.67 -5.32 9.34 -6 9 C-4.68 8.67 -3.36 8.34 -2 8 C-1.855625 6.865625 -1.71125 5.73125 -1.5625 4.5625 C-1 1 -1 1 0 0 Z " fill="#1B1B1A" transform="translate(487,184)"/>
<path d="M0 0 C0.66 0.33 1.32 0.66 2 1 C2 1.66 2 2.32 2 3 C0.02 3.99 -1.96 4.98 -4 6 C-4.33 4.68 -4.66 3.36 -5 2 C-2.625 0.9375 -2.625 0.9375 0 0 Z " fill="#F1F1EF" transform="translate(469,209)"/>
<path d="M0 0 C0.99 0.33 1.98 0.66 3 1 C2.01 1.495 2.01 1.495 1 2 C1 3.32 1 4.64 1 6 C0.01 6.66 -0.98 7.32 -2 8 C-2.6875 5.6875 -2.6875 5.6875 -3 3 C-1.5625 1.1875 -1.5625 1.1875 0 0 Z " fill="#202020" transform="translate(174,122)"/>
<path d="M0 0 C0.99 0.33 1.98 0.66 3 1 C3 2.65 3 4.3 3 6 C-1.75 5.25 -1.75 5.25 -4 3 C-2.68 3 -1.36 3 0 3 C-0.66 2.34 -1.32 1.68 -2 1 C-1.34 0.67 -0.68 0.34 0 0 Z " fill="#1E1E1C" transform="translate(877,114)"/>
<path d="M0 0 C0.928125 0.2784375 0.928125 0.2784375 1.875 0.5625 C4.04160178 1.23686176 4.04160178 1.23686176 6 0 C6.66 0.66 7.32 1.32 8 2 C5.69 3.32 3.38 4.64 1 6 C0.67 4.02 0.34 2.04 0 0 Z " fill="#333333" transform="translate(393,74)"/>
<path d="M0 0 C2.55028983 1.27514492 2.93081711 2.40341297 4 5 C4 5.99 4 6.98 4 8 C2.02 6.35 0.04 4.7 -2 3 C-1.34 2.01 -0.68 1.02 0 0 Z " fill="#E9E9E8" transform="translate(385,218)"/>
<path d="M0 0 C0.66 0 1.32 0 2 0 C2.66 0.99 3.32 1.98 4 3 C4.66 3 5.32 3 6 3 C6 3.99 6 4.98 6 6 C6.66 6 7.32 6 8 6 C7.67 6.66 7.34 7.32 7 8 C1.21538462 4.55384615 1.21538462 4.55384615 0.125 1.75 C0.08375 1.1725 0.0425 0.595 0 0 Z " fill="#1E1E1D" transform="translate(760,206)"/>
<path d="M0 0 C2.93703384 0.62936439 5.33788628 1.62420173 8 3 C6.37675914 3.22162329 4.751279 3.42689803 3.125 3.625 C1.76761719 3.79902344 1.76761719 3.79902344 0.3828125 3.9765625 C-0.40351562 3.98429688 -1.18984375 3.99203125 -2 4 C-2.66 3.34 -3.32 2.68 -4 2 C-2.68 2 -1.36 2 0 2 C0 1.34 0 0.68 0 0 Z " fill="#E7E7E5" transform="translate(848,137)"/>
<path d="M0 0 C0.144375 0.61875 0.28875 1.2375 0.4375 1.875 C0.93152225 4.03258322 0.93152225 4.03258322 2 6 C1.34 6.66 0.68 7.32 0 8 C-0.66 7.34 -1.32 6.68 -2 6 C-2.99 6.495 -2.99 6.495 -4 7 C-2.92598892 4.08482708 -2.22189824 2.22189824 0 0 Z " fill="#1E1E1E" transform="translate(149,109)"/>
<path d="M0 0 C2.61500768 2.36595933 4.38999603 4.86049226 6 8 C5.67 8.66 5.34 9.32 5 10 C4.34 8.68 3.68 7.36 3 6 C2.34 6 1.68 6 1 6 C0.67 4.02 0.34 2.04 0 0 Z " fill="#1D1D1D" transform="translate(168,176)"/>
<path d="M0 0 C1.65 0.99 3.3 1.98 5 3 C3.74458443 5.51083114 2.49936512 5.87125446 0 7 C-0.38133299 5.0085944 -0.71325582 3.00720923 -1 1 C-0.67 0.67 -0.34 0.34 0 0 Z " fill="#F2F2F0" transform="translate(881,155)"/>
<path d="M0 0 C1.9375 0.3125 1.9375 0.3125 4 1 C5 4 5 4 4.0625 6.1875 C3.5365625 7.0846875 3.5365625 7.0846875 3 8 C0 2.25 0 2.25 0 0 Z " fill="#313131" transform="translate(874,151)"/>
<path d="M0 0 C0.99 0 1.98 0 3 0 C3.66 0.99 4.32 1.98 5 3 C4 6 4 6 2 7 C0.5393715 4.35261084 0 3.10551666 0 0 Z " fill="#1E1E1C" transform="translate(906,145)"/>
<path d="M0 0 C0.66 0 1.32 0 2 0 C1.67 1.98 1.34 3.96 1 6 C0.01 6.33 -0.98 6.66 -2 7 C-2.33 6.01 -2.66 5.02 -3 4 C-1.6875 1.8125 -1.6875 1.8125 0 0 Z " fill="#F0F0EE" transform="translate(139,120)"/>
<path d="M0 0 C2.31 0 4.62 0 7 0 C6.67 0.99 6.34 1.98 6 3 C4.02 3 2.04 3 0 3 C0 2.01 0 1.02 0 0 Z " fill="#262624" transform="translate(424,66)"/>
<path d="M0 0 C0.99 0.99 1.98 1.98 3 3 C1.68 4.32 0.36 5.64 -1 7 C-2 4 -2 4 -1.0625 1.8125 C-0.5365625 0.9153125 -0.5365625 0.9153125 0 0 Z " fill="#F1F1F0" transform="translate(831,145)"/>
<path d="M0 0 C0.66 0.33 1.32 0.66 2 1 C1.01 1.33 0.02 1.66 -1 2 C-1 2.99 -1 3.98 -1 5 C-2.65 5 -4.3 5 -6 5 C-6 4.34 -6 3.68 -6 3 C-4.03533587 1.93224776 -2.03144641 0.93446535 0 0 Z " fill="#191918" transform="translate(173,90)"/>
<path d="M0 0 C0.33 0.66 0.66 1.32 1 2 C-1.31 2.66 -3.62 3.32 -6 4 C-6.33 3.01 -6.66 2.02 -7 1 C-4.53721199 -0.231394 -2.7204945 -0.07159196 0 0 Z " fill="#F3F3F1" transform="translate(183,85)"/>
<path d="M0 0 C0.33 0.99 0.66 1.98 1 3 C0.34 3 -0.32 3 -1 3 C-1 3.66 -1 4.32 -1 5 C-2.32 4.67 -3.64 4.34 -5 4 C-5 3.34 -5 2.68 -5 2 C-2 0 -2 0 0 0 Z " fill="#EFEFED" transform="translate(749,234)"/>
<path d="M0 0 C0.66 0.66 1.32 1.32 2 2 C1.67 2.66 1.34 3.32 1 4 C-1.32156597 4.40729228 -3.6568787 4.74438677 -6 5 C-3.375 1.125 -3.375 1.125 0 0 Z " fill="#1F1F1F" transform="translate(490,226)"/>
<path d="M0 0 C2.475 0.495 2.475 0.495 5 1 C3.25 4.875 3.25 4.875 1 6 C0.67 4.02 0.34 2.04 0 0 Z " fill="#1C1C1C" transform="translate(378,89)"/>
</svg>
