<?xml version="1.0" encoding="UTF-8"?>
<svg id="Layer_2" data-name="Layer 2" xmlns="http://www.w3.org/2000/svg" viewBox="0 0 121.26 31.72">
  <defs>
    <style>
      .cls-1 {
        fill: #2d2d2d;
        stroke-width: 0px;
      }
    </style>
  </defs>
  <path class="cls-1" d="m31.92,15.81c0,3.25.03,6.51-.01,9.76-.04,2.85-2.07,5.3-4.85,5.92-.68.15-1.39.21-2.09.21-6.05.02-12.09.01-18.14,0-3.9,0-6.73-2.62-6.77-6.5-.08-6.36-.07-12.72,0-19.08C.1,2.6,2.66.1,6.34.05c6.47-.08,12.95-.07,19.42,0,3.68.04,6.15,2.68,6.16,6.36.02,3.13,0,6.26,0,9.39,0,0,0,0-.01,0Zm-10.73,6.73c-2.47,0-4.88.09-7.28-.02-2.31-.11-4.4-1.77-4.81-3.98-.29-1.52-.33-3.16-.09-4.68.38-2.43,2.61-4.07,5.14-4.08,3.46-.02,6.93,0,10.39,0,.9,0,1.23-.3,1.26-1.2.03-.65.02-1.3,0-1.95-.03-1.01-.35-1.33-1.39-1.33-3.64,0-7.28-.04-10.92,0-4.19.06-7.75,2.69-8.91,6.58-.71,2.37-.64,4.81-.22,7.21.73,4.2,4.41,7.6,8.66,7.8,3.78.18,7.58.09,11.37.11.15,0,.3-.04.45-.06.55-.07.86-.39.92-.93.05-.42.06-.85.06-1.27,0-2.88,0-5.76,0-8.64,0-1.43-.25-1.67-1.65-1.67-2.41,0-4.82,0-7.23,0-1.01,0-1.35.32-1.38,1.33-.02.53-.01,1.05,0,1.58.01,1.13.31,1.43,1.42,1.43,1.4,0,2.8,0,4.22,0v3.76Z"/>
  <path class="cls-1" d="m62.23,10.42c-1.08.14-2.13.21-3.14.43-1.13.25-1.76-.06-2.46-1.07-1.66-2.43-4.22-3.11-7.03-2.78-4.52.54-6.77,4.24-6.98,8.12-.14,2.66.44,5.11,2.27,7.17,2.91,3.26,8.44,3.38,11.25.22.73-.82,1.31-2.1,1.35-3.08h-6.58v-4.04h11.28v13.07h-3.63v-3.36c-.24.28-.36.41-.48.55-1.98,2.43-4.65,3.39-7.69,3.42-4.9.06-8.7-1.94-11.13-6.23-2.83-4.99-2.17-13,2.8-17.28,1.88-1.63,4.08-2.5,6.53-2.77,2.82-.31,5.63-.23,8.24,1.02,2.76,1.33,4.61,3.45,5.37,6.6Z"/>
  <path class="cls-1" d="m121.26,20.74h-13.38c.4,3,2.21,4.77,4.77,4.65,1.53-.07,2.81-.65,3.68-1.99.12-.19.41-.37.63-.38,1.3-.03,2.61-.02,4-.02-.59,2.03-1.68,3.58-3.43,4.68-3.81,2.39-10.71,1.86-13.28-3.52-1.55-3.25-1.56-9.3,2.15-12.32,2.7-2.19,5.77-2.63,8.98-1.57,3.11,1.03,4.92,3.35,5.53,6.54.24,1.26.23,2.56.34,3.91Zm-4.7-3.32c-.36-2.62-1.93-3.98-4.42-3.91-2.15.07-3.84,1.7-4.01,3.91h8.43Z"/>
  <path class="cls-1" d="m70.14,24.22h10.81v4.33h-15.49V2.91h4.68v21.31Z"/>
  <path class="cls-1" d="m93.37,13.98h-3.15v-3.84h3.12v-4.52h4.56v4.47h4.36v3.87h-4.32c0,.33,0,.59,0,.86,0,2.35,0,4.71,0,7.06,0,2.33.91,3.12,3.23,2.78.34-.05.69-.11,1.04-.17.03.09.07.16.07.23,0,1.18,0,2.35,0,3.52-2.1.95-5.8.93-7.5-.81-.94-.97-1.37-2.14-1.38-3.46-.02-3.03,0-6.06-.01-9.09,0-.27,0-.54,0-.91Z"/>
  <path class="cls-1" d="m87.9,28.47h-4.6V10.13h4.6v18.34Z"/>
  <path class="cls-1" d="m85.57,2.26c1.51,0,2.74,1.25,2.74,2.79,0,1.55-1.27,2.8-2.83,2.78-1.51-.02-2.76-1.29-2.76-2.79,0-1.52,1.29-2.78,2.85-2.77Z"/>
</svg>